<?xml version="1.0" encoding="utf-8"?>
<!-- Generator: Adobe Illustrator 21.0.0, SVG Export Plug-In . SVG Version: 6.00 Build 0)  -->
<svg version="1.1" id="Capa_1" xmlns="http://www.w3.org/2000/svg" xmlns:xlink="http://www.w3.org/1999/xlink" x="0px" y="0px"
	 viewBox="0 0 368.5 255.1" style="enable-background:new 0 0 368.5 255.1;" xml:space="preserve">
<style type="text/css">
	.st0{fill:#306FC5;}
	.st1{fill:#FFFFFF;}
</style>
<path class="st0" d="M343,255.1H25.5c-14,0-25.5-11.5-25.5-25.5V25.5C0,11.5,11.5,0,25.5,0H343c14,0,25.5,11.5,25.5,25.5v204.1
	C368.5,243.6,357,255.1,343,255.1z"/>
<g>
	<polygon class="st1" points="57.3,100.9 67.9,100.9 62.6,87.5 	"/>
	<polygon class="st1" points="113.5,146 113.5,152.3 131.2,152.3 131.2,159 113.5,159 113.5,166.2 133.1,166.2 142.3,156.1 
		133.6,146 	"/>
	<polygon class="st1" points="252.1,87.5 246.4,100.9 257.4,100.9 	"/>
	<polygon class="st1" points="164.8,170 164.8,142.7 152.3,156.1 	"/>
	<path class="st1" d="M188.3,150.4c-0.5-2.9-2.4-4.3-5.3-4.3H173v8.6h10.6C186.4,154.7,188.3,153.2,188.3,150.4z"/>
	<path class="st1" d="M221.9,153.7c1-0.5,1.4-1.9,1.4-3.4c0.5-1.9-0.5-2.9-1.4-3.4c-1-0.5-2.4-0.5-3.8-0.5h-9.6v7.7h9.6
		C219.5,154.2,221,154.2,221.9,153.7z"/>
	<path class="st1" d="M291,75v5.8l-2.9-5.8h-22.6v5.8l-2.9-5.8H232c-5.3,0-9.6,1-13.4,2.9V75H197v0.5v2.4c-2.4-1.9-5.3-2.9-9.1-2.9
		h-77.3l-5.3,12L100,75H82.8h-7.2v5.8L73.2,75h-0.5H52.1l-9.6,22.6l-11,24.5l-0.2,0.5h0.2h24.5h0.3l0.2-0.5l2.9-7.2h6.2l2.9,7.7
		h27.8V122v-5.3l2.4,5.8h13.9l2.4-5.8v5.3v0.5h11h55.2h0.5V110h1c1,0,1,0,1,1.4V122h34.5v-2.9c2.9,1.4,7.2,2.9,13,2.9h14.4l2.9-7.7
		h6.7l2.9,7.7h27.8v-4.8v-2.4l4.3,7.2h1h0.5h21.1V75H291L291,75L291,75z M128.3,115.3h-4.8h-2.9v-2.9V88.9l-0.5,1.1v0L109,115.3
		h-0.4h-2.6H102L90.4,88.9v26.4H74.1l-3.4-7.2H54.5l-3.4,7.2h-8.4l14.2-33.6h12l13.4,32.1V81.7h2.9H95l0.2,0.5h0l6.1,13.2l4.3,9.9
		l0.2-0.5l9.6-23h13L128.3,115.3L128.3,115.3L128.3,115.3z M161.5,88.9h-18.7v6.2H161v6.7h-18.2v6.7h18.7v7.2h-26.9V81.7h26.9V88.9
		L161.5,88.9z M195.7,101.3C195.7,101.3,195.7,101.3,195.7,101.3c0.2,0.2,0.4,0.4,0.5,0.6c0.9,1.2,1.7,3,1.7,5.6c0,0,0,0.1,0,0.1
		c0,0,0,0,0,0.1c0,0,0,0,0,0c0,0.3,0,0.5,0,0.8v6.7h-7.2v-3.8c0-1.9,0-4.8-1.4-6.7c-0.5-0.5-0.9-0.8-1.4-1c-0.7-0.5-2.1-0.5-4.3-0.5
		h-8.6v12h-8.2V81.7H185c4.3,0,7.2,0,9.6,1.4c2.4,1.4,3.8,3.8,3.8,7.5c-0.1,5.1-3.4,7.9-5.7,8.9C192.6,99.5,194.2,99.8,195.7,101.3z
		 M211.8,115.3h-8.2V81.7h8.2V115.3z M305.4,115.3h-10.6l-15.4-25.4V111l-0.1,0v4.4h-8.1v0h-8.2l-2.9-7.2h-16.8l-2.9,7.7h-9.1
		c-3.8,0-8.6-1-11.5-3.8c-2.9-2.9-4.3-6.7-4.3-13c0-4.8,1-9.6,4.3-13.4c2.4-2.9,6.7-3.8,12-3.8h7.7v7.2H232c-2.9,0-4.3,0.5-6.2,1.9
		c-1.4,1.4-2.4,4.3-2.4,7.7c0,3.8,0.5,6.2,2.4,8.2c1.4,1.4,3.4,1.9,5.8,1.9h3.4l11-26.4h4.8h7.2l13.4,32.1v-1.6v-10.8v-1V82.2h12
		l13.9,23.5V82.2h8.2L305.4,115.3L305.4,115.3L305.4,115.3L305.4,115.3z"/>
	<path class="st1" d="M188.8,95.7c0.1-0.1,0.3-0.3,0.4-0.5c0.4-0.7,0.9-1.9,0.7-3.6c0-0.2,0-0.3-0.1-0.4c0,0,0-0.1,0-0.1l0,0
		c-0.2-0.8-0.8-1.3-1.5-1.6c-1-0.5-2.4-0.5-3.8-0.5h-9.6v7.7h9.6c1.4,0,2.9,0,3.8-0.5c0.1-0.1,0.3-0.2,0.4-0.3l0,0
		C188.7,95.9,188.8,95.8,188.8,95.7z"/>
	<path class="st1" d="M333.7,163.3c0-3.4-1-6.7-2.4-9.1v-21.6h0v-1.4c0,0-20.1,0-23.1,0c-3,0-6.6,2.9-6.6,2.9v-2.9h-22.1
		c-3.4,0-7.7,1-9.6,2.9v-2.9h-39.3v1.4v1.4c-2.9-2.4-8.2-2.9-10.6-2.9h-25.9v1.4v1.4c-2.4-2.4-8.2-2.9-11-2.9h-28.8l-6.7,7.2
		l-6.2-7.2h-2H136H98.1v1.4v3.8v43.2h42.2l6.9-6.9l6,6.9h0.5h24.3h1.1h0.5h0.5v-4.8v-6.2h2.4c3.4,0,7.7,0,11-1.4v12v1h21.6v-1v-11.5
		h1c1.4,0,1.4,0,1.4,1.4v10.1v1h65.3c4.3,0,8.6-1,11-2.9v1.9v1h20.6c4.3,0,8.6-0.5,11.5-2.4c4.4-2.7,7.2-7.3,7.6-12.9
		c0-0.2,0-0.3,0.1-0.5l0,0C333.7,163.9,333.7,163.6,333.7,163.3z M182.6,160.4H173v1.4v2.9v2.9v5.3h-15.8l-9.2-10.6l0,0l-0.4-0.5
		l-10.6,11h-30.7v-33.6h31.2l8.5,9.3l1.8,2l0.2-0.3l10.1-11h25.4c4.9,0,10.5,1.2,12.6,6.2c0.3,1,0.4,2.1,0.4,3.4
		C196.5,158.5,189.8,160.4,182.6,160.4z M230.6,159.9c1,1.4,1.4,3.4,1.4,6.2v6.7h-8.2v-4.3c0-1.9,0-5.3-1.4-6.7
		c-1-1.4-2.9-1.4-5.8-1.4H208v12.5h-8.2v-34.1h18.2c3.8,0,7.2,0,9.6,1.4c2.4,1.4,4.3,3.8,4.3,7.7c0,5.3-3.4,8.2-5.8,9.1
		C228.6,158,230.1,159,230.6,159.9z M263.7,146h-18.7v6.2h18.2v6.7h-18.2v6.7h18.7v7.2h-26.9v-34.1h26.9V146z M283.8,172.9h-15.4
		v-7.2h15.4c1.4,0,2.4,0,3.4-1c0.5-0.5,1-1.4,1-2.4c0-1-0.5-1.9-1-2.4c-0.5-0.5-1.4-1-2.9-1c-7.7-0.5-16.8,0-16.8-10.6
		c0-4.8,2.9-10.1,11.5-10.1h15.8v8.2H280c-1.4,0-2.4,0-3.4,0.5c-1,0.5-1,1.4-1,2.4c0,1.4,1,1.9,1.9,2.4c1,0.5,1.9,0.5,2.9,0.5h4.3
		c4.3,0,7.2,1,9.1,2.9c1.4,1.4,2.4,3.8,2.4,7.2C296.3,169.5,292,172.9,283.8,172.9z M325.1,169.5c-1.9,1.9-5.3,3.4-10.1,3.4h-15.4
		v-7.2H315c1.4,0,2.4,0,3.4-1c0.5-0.5,1-1.4,1-2.4c0-1-0.5-1.9-1-2.4c-0.5-0.5-1.4-1-2.9-1c-7.7-0.5-16.8,0-16.8-10.6
		c0-4.6,2.6-8.7,9-9.9c0.8-0.1,1.6-0.2,2.5-0.2H326v8.2h-10.6h-3.8h-0.5c-1.4,0-2.4,0-3.4,0.5c-0.5,0.5-1,1.4-1,2.4
		c0,1.4,0.5,1.9,1.9,2.4c1,0.5,1.9,0.5,2.9,0.5h0.5h3.8c2.1,0,3.7,0.3,5.1,0.8c1.3,0.5,5.7,2.4,6.7,7.6c0.1,0.5,0.1,1.1,0.1,1.7
		C328,165.2,327,167.6,325.1,169.5z"/>
</g>
</svg>
