<?xml version="1.0" encoding="utf-8"?>
<!-- Generator: Adobe Illustrator 21.0.0, SVG Export Plug-In . SVG Version: 6.00 Build 0)  -->
<svg version="1.1" id="Capa_1" xmlns="http://www.w3.org/2000/svg" xmlns:xlink="http://www.w3.org/1999/xlink" x="0px" y="0px"
	 viewBox="0 0 368.5 255.1" style="enable-background:new 0 0 368.5 255.1;" xml:space="preserve">
<style type="text/css">
	.st0{fill:#302B6E;}
	.st1{fill-rule:evenodd;clip-rule:evenodd;fill:#D6162F;}
	.st2{fill:#FFEB00;}
	.st3{fill-rule:evenodd;clip-rule:evenodd;fill:#FFEB00;}
	.st4{fill:#302B6E;stroke:#302B6E;stroke-width:0.216;stroke-miterlimit:22.9256;}
</style>
<g>
	<g>
		<defs>
			<rect id="SVGID_1_" x="-854.1" y="-283.6" width="595.3" height="841.9"/>
		</defs>
		<clipPath id="SVGID_2_">
			<use xlink:href="#SVGID_1_"  style="overflow:visible;"/>
		</clipPath>
	</g>
</g>
<g>
	<path class="st0" d="M343,0H25.5C11.5,0,0,11.5,0,25.5v87.4c180.9-49.3,321.5-10.7,368.5,6.8V25.5C368.5,11.5,357,0,343,0z"/>
	<path class="st1" d="M0,112.9v35.9c183-46.5,301.3-14,368.5,8.4v-37.5C321.5,102.3,180.9,63.6,0,112.9z"/>
	<path class="st2" d="M0,148.8v80.8c0,14,11.5,25.5,25.5,25.5H343c14,0,25.5-11.5,25.5-25.5v-72.4C301.3,134.8,183,102.3,0,148.8z"
		/>
	<path class="st3" d="M116.5,91.6c9.2-25.5,30.3-47.5,66.9-47.2c36.6,0.3,61.1,21.1,67.7,48.5C203.9,88.1,172.4,87.2,116.5,91.6z"/>
	<path class="st4" d="M81.1,203.6l24.9-37.2h9.3l26.6,37.2H132l-7.6-11.3H97.3l-7.1,11.3H81.1L81.1,203.6z M99.8,188.3h22l-6.8-10.3
		c-2.1-3.1-3.6-5.7-4.6-7.7c-0.8,2.4-2,4.7-3.5,7.1L99.8,188.3L99.8,188.3z M185.4,203.6v-4c-3.7,3-8.6,4.6-14.9,4.6
		c-2.8,0-5.4-0.3-7.8-0.9c-2.4-0.6-4.2-1.4-5.4-2.3c-1.2-0.9-2-2.1-2.5-3.4c-0.3-0.9-0.5-2.3-0.5-4.3v-16.7h8v14.9
		c0,2.4,0.2,4,0.5,4.8c0.5,1.2,1.6,2.1,3.2,2.8c1.6,0.7,3.6,1,6,1c2.4,0,4.6-0.3,6.7-1c2.1-0.7,3.6-1.7,4.4-2.9
		c0.9-1.2,1.3-3,1.3-5.3v-14.4h8v26.9H185.4L185.4,203.6z M211.9,203.6v-26.9h7.2v4.1c1.8-1.9,3.5-3.2,5.1-3.8
		c1.5-0.6,3.2-0.9,5.1-0.9c2.7,0,5.4,0.5,8.2,1.5l-2.8,4.2c-1.9-0.7-3.9-1-5.8-1c-1.8,0-3.3,0.3-4.7,0.9c-1.4,0.6-2.4,1.4-3,2.5
		c-0.9,1.6-1.3,3.4-1.3,5.3v14.1H211.9L211.9,203.6z M279.8,200.3c-3,1.4-5.8,2.4-8.5,3c-2.7,0.6-5.7,0.9-8.8,0.9
		c-5.2,0-9.1-0.7-11.9-2.2c-2.8-1.4-4.2-3.3-4.2-5.5c0-1.3,0.5-2.5,1.6-3.6c1-1.1,2.4-2,4.1-2.6c1.7-0.7,3.6-1.2,5.7-1.5
		c1.6-0.2,3.9-0.5,7.1-0.7c6.4-0.4,11.2-1,14.2-1.6c0-0.6,0-1,0-1.2c0-1.9-0.8-3.2-2.3-3.9c-2-1-5.1-1.5-9.1-1.5
		c-3.7,0-6.5,0.4-8.3,1.1c-1.8,0.8-3.1,2.1-4,4l-7.8-0.6c0.7-1.9,1.9-3.5,3.5-4.6c1.6-1.2,4-2.1,7-2.7c3.1-0.6,6.6-1,10.7-1
		c4,0,7.3,0.3,9.8,0.8c2.5,0.5,4.4,1.2,5.5,2c1.2,0.8,2,1.9,2.5,3.1c0.3,0.8,0.4,2.2,0.4,4.2v6.1c0,4.2,0.2,6.9,0.5,8
		c0.3,1.1,1,2.2,2,3.2h-8.3C280.6,202.7,280,201.5,279.8,200.3L279.8,200.3z M279.1,190.1c-2.9,0.7-7.2,1.3-13,1.7
		c-3.3,0.3-5.6,0.6-7,0.9c-1.4,0.3-2.4,0.8-3.1,1.5c-0.7,0.6-1.1,1.4-1.1,2.2c0,1.2,0.8,2.2,2.4,3c1.6,0.8,4,1.2,7.1,1.2
		c3.1,0,5.8-0.4,8.2-1.2c2.4-0.8,4.2-1.8,5.3-3.2c0.9-1,1.3-2.6,1.3-4.6V190.1z"/>
</g>
</svg>
