<?xml version="1.0" encoding="utf-8"?>
<!-- Generator: Adobe Illustrator 21.0.0, SVG Export Plug-In . SVG Version: 6.00 Build 0)  -->
<svg version="1.1" id="Capa_1" xmlns="http://www.w3.org/2000/svg" xmlns:xlink="http://www.w3.org/1999/xlink" x="0px" y="0px"
	 viewBox="0 0 368.5 255.1" style="enable-background:new 0 0 368.5 255.1;" xml:space="preserve">
<style type="text/css">
	.st0{fill:#D0D3D4;}
	.st1{fill:#FFFFFF;}
	.st2{fill:#0079BE;}
</style>
<path class="st0" d="M343,255.1H25.5c-14,0-25.5-11.5-25.5-25.5V25.5C0,11.5,11.5,0,25.5,0H343c14,0,25.5,11.5,25.5,25.5v204.1
	C368.5,243.6,357,255.1,343,255.1z"/>
<g>
	<path class="st1" d="M161.7,45.1c-45.5,0-82.3,36.8-82.3,82.3s36.8,82.3,82.3,82.3s82.3-36.8,82.3-82.3S207.1,45.1,161.7,45.1z"/>
	<path class="st2" d="M109.6,127.4c0,22.2,13.9,41.1,33.4,48.7V78.7C123.4,86.3,109.6,105.2,109.6,127.4z M180.3,78.7V176
		c19.5-7.5,33.4-26.4,33.4-48.7S199.9,86.2,180.3,78.7z M203.8,37.7h-42.2c-49.8,0-90.7,37-90.7,90.7c0,49.1,40.9,89.3,90.6,89.1
		h42.2c49.1,0.2,93.9-40.1,93.9-89.1C297.7,74.7,252.8,37.7,203.8,37.7z M161.7,209.7c-45.5,0-82.3-36.8-82.3-82.3
		s36.8-82.3,82.3-82.3s82.3,36.8,82.3,82.3C243.9,172.8,207.1,209.7,161.7,209.7z"/>
</g>
</svg>
