<?xml version="1.0" encoding="utf-8"?>
<!-- Generator: Adobe Illustrator 21.0.0, SVG Export Plug-In . SVG Version: 6.00 Build 0)  -->
<svg version="1.1" id="Capa_1" xmlns="http://www.w3.org/2000/svg" xmlns:xlink="http://www.w3.org/1999/xlink" x="0px" y="0px"
	 viewBox="0 0 368.5 255.1" style="enable-background:new 0 0 368.5 255.1;" xml:space="preserve">
<style type="text/css">
	.st0{fill:#BCC1C2;}
	.st1{fill:#F26E21;}
	.st2{fill:#20221D;}
</style>
<path class="st0" d="M343,255.1H25.5c-14,0-25.5-11.5-25.5-25.5V25.5C0,11.5,11.5,0,25.5,0H343c14,0,25.5,11.5,25.5,25.5v204.1
	C368.5,243.6,357,255.1,343,255.1z"/>
<path class="st1" d="M219.8,126.9c0-6.1-2.3-12.3-6.9-16.9c-4.6-4.6-10.8-6.9-17-6.9c0,0-0.1,0-0.1,0c-13.4,0-24,10.6-24,24
	c0,13.2,10.7,24,24,24c13.4,0,24-10.6,24-24C219.8,127,219.8,126.9,219.8,126.9z"/>
<path class="st2" d="M116.5,121.9c-5.5-1.8-6.9-3.2-6.9-5.5c0-2.8,2.8-5.1,6.5-5.1c2.8,0,5.1,0.9,7.4,3.7l4.6-6
	c-3.7-3.2-8.3-5.1-13.4-5.1c-7.8,0-14.3,5.5-14.3,12.9c0,6.5,2.8,9.2,11.1,12.5c3.7,1.4,5.1,1.8,6,2.8c1.8,0.9,2.8,2.8,2.8,4.6
	c0,3.7-2.8,6.5-6.9,6.5c-4.2,0-7.8-2.3-9.7-6l-5.5,5.5c4.2,6,9.2,8.8,15.7,8.8c9.2,0,15.7-6,15.7-14.8
	C129.4,128.8,126.6,125.6,116.5,121.9z M85.6,149.6h8.8v-45.2h-8.8V149.6z M57,104.4H44.1v45.2H57c6.9,0,12-1.8,16.1-5.1
	c5.1-4.2,8.3-10.6,8.3-17.5C81.5,113.6,71.8,104.4,57,104.4z M67.6,138.5c-2.8,2.3-6.5,3.7-12,3.7h-2.8v-30h2.3
	c5.5,0,9.2,0.9,12,3.7c3.2,2.8,5.1,6.9,5.1,11.1C72.7,131.2,70.8,135.8,67.6,138.5z M167.4,137.4l0,0.2
	C167.4,137.5,167.4,137.4,167.4,137.4z M315.7,130.7c6.9-1.4,10.6-6,10.6-12.9c0-8.3-6-13.4-16.1-13.4h-13.4v45.2h8.8v-18h1.4
	l12.4,18H330L315.7,130.7z M308.3,125.2h-2.8v-13.8h2.8c5.5,0,8.8,2.3,8.8,6.9C317.1,122.9,313.9,125.2,308.3,125.2z M265.4,124.7
	v24.9h24.9h0.5v-7.4H283h-8.3v-8.3v-4.1h15.7v-7.8h-15.7v-9.7h16.1v-7.8h-25.4V124.7z M167.4,137.6v-0.2c0,0,0,0,0,0l0-0.2
	c-3.6,3.6-6.9,5-10.5,5.1c-8.7-0.1-15.1-6.5-15.1-15.7c0-4.6,1.7-8.4,4.5-11.6c2.6-2.5,5.9-4.1,9.8-4.1c4.1,0,7.4,1.4,11.1,5.1
	v-10.6c-3.7-1.8-6.9-2.8-11.1-2.8c-5.9,0.4-11.4,2.8-15.6,6.5c-1.2,1.1-2.4,2.3-3.4,3.7c-3.1,4-5,8.9-5,14.2
	c0,13.4,10.6,23.5,24,23.5c0.1,0,0.1,0,0.2,0c0.1,0,0.2,0,0.3,0c3.7,0,6.9-0.9,11.1-2.8L167.4,137.6
	C167.4,137.6,167.4,137.6,167.4,137.6z M250.1,109.2l-10.4,25.7l-12-30.4h-9.7l18.9,46.6h5.1l19.8-46.6h-9.7L250.1,109.2z"/>
</svg>
