<?xml version="1.0" encoding="utf-8"?>
<!-- Generator: Adobe Illustrator 21.0.0, SVG Export Plug-In . SVG Version: 6.00 Build 0)  -->
<svg version="1.1" id="Capa_1" xmlns="http://www.w3.org/2000/svg" xmlns:xlink="http://www.w3.org/1999/xlink" x="0px" y="0px"
	 viewBox="0 0 368.5 255.1" style="enable-background:new 0 0 368.5 255.1;" xml:space="preserve">
<style type="text/css">
	.st0{fill:#F8C919;}
	.st1{fill:#19A1D7;}
	.st2{fill:#DB4530;}
	.st3{fill:#FFFFFF;}
</style>
<path d="M343,255.1H25.5c-14,0-25.5-11.5-25.5-25.5V25.5C0,11.5,11.5,0,25.5,0H343c14,0,25.5,11.5,25.5,25.5v204.1
	C368.5,243.6,357,255.1,343,255.1z"/>
<g>
	<path class="st0" d="M93.6,103.5c3-1,6.1-1.5,9.4-1.5c14.4,0,26.3,10.2,29.1,23.8l20.4-4.2c-4.7-23-25-40.4-49.4-40.4
		c-5.6,0-11,0.9-16,2.6L93.6,103.5z"/>
	<path class="st1" d="M69.6,169.4l13.8-15.6c-6.1-5.4-10-13.4-10-22.2c0-8.8,3.9-16.8,10-22.2L69.6,93.9c-10.4,9.2-17,22.7-17,37.8
		C52.6,146.7,59.2,160.2,69.6,169.4"/>
	<path class="st2" d="M132.1,137.6c-2.8,13.5-14.7,23.7-29.1,23.7c-3.3,0-6.5-0.5-9.4-1.5L87,179.5c5,1.7,10.4,2.6,16,2.6
		c24.4,0,44.7-17.3,49.4-40.3L132.1,137.6z"/>
	<path class="st3" d="M170.3,154.5c-0.7-1.1-1.6-2.8-2.1-4.1c-3.2-7.5-3.4-15.2-0.7-22.7c3-8.2,8.7-14.4,16.1-17.6
		c9.3-4,19.6-3.2,28.5,2.1c5.7,3.2,9.7,8.3,12.7,15.3c0.4,0.9,0.7,1.9,1.1,2.7L170.3,154.5z M188.8,122.2c-6.6,2.8-10,9-9.3,16.3
		l27.9-12C202.7,120.8,196.4,119,188.8,122.2 M211,148.4C211,148.4,211,148.4,211,148.4l-0.6-0.4c-1.7,2.7-4.3,4.9-7.6,6.3
		c-6.2,2.7-12,2-16.2-1.6l-0.4,0.6c0,0,0,0,0,0l-7.1,10.6c1.8,1.2,3.6,2.3,5.6,3.1c7.8,3.3,15.8,3.1,23.7-0.3
		c5.7-2.5,10.2-6.2,13.2-11L211,148.4z"/>
	<path class="st3" d="M245.3,94.6v59l9.2,3.7l-5.2,12.2l-10.1-4.2c-2.3-1-3.8-2.5-5-4.2c-1.1-1.7-2-4.1-2-7.3V94.6H245.3z"/>
	<path class="st3" d="M269,138.5c0-5,2.2-9.5,5.7-12.6l-9.4-10.5c-6.4,5.6-10.4,13.9-10.4,23.1c0,9.2,4,17.4,10.4,23.1l9.4-10.5
		C271.2,148,269,143.6,269,138.5"/>
	<path class="st3" d="M285.7,155.3c-1.9,0-3.6-0.3-5.3-0.9l-4.5,13.4c3.1,1,6.4,1.6,9.8,1.6c14.9,0,27.3-10.5,30.2-24.6l-13.8-2.8
		C300.5,149.6,293.8,155.3,285.7,155.3"/>
	<path class="st3" d="M285.8,107.8c-3.4,0-6.7,0.6-9.8,1.6l4.5,13.4c1.7-0.6,3.5-0.9,5.3-0.9c8.1,0,14.8,5.8,16.4,13.4l13.8-2.8
		C313.1,118.4,300.7,107.8,285.8,107.8"/>
</g>
</svg>
