<?xml version="1.0" encoding="utf-8"?>
<!-- Generator: Adobe Illustrator 21.0.0, SVG Export Plug-In . SVG Version: 6.00 Build 0)  -->
<svg version="1.1" id="Capa_1" xmlns="http://www.w3.org/2000/svg" xmlns:xlink="http://www.w3.org/1999/xlink" x="0px" y="0px"
	 viewBox="0 0 368.5 255.1" style="enable-background:new 0 0 368.5 255.1;" xml:space="preserve">
<style type="text/css">
	.st0{fill:#D0D3D4;}
	.st1{fill:#818888;}
</style>
<path class="st0" d="M343,255.1H25.5c-14,0-25.5-11.5-25.5-25.5V25.5C0,11.5,11.5,0,25.5,0H343c14,0,25.5,11.5,25.5,25.5v204.1
	C368.5,243.6,357,255.1,343,255.1z"/>
<g>
	<path class="st1" d="M171.8,131.4c0-16.2,18.6-18.6,18.6-25.8c0-3.2-2.3-5.6-8.5-5.6c-5.5,0-11,2.9-15.1,7.5l-13.8-15.8
		c7.9-8.9,19.8-13.5,31.6-13.5c18.9,0,30.7,9.2,30.7,22.9c0,20.5-22.2,22.1-22.2,32.8c0,2.4,1,4.6,2.2,5.7l-19.1,4.9
		C173.5,141.2,171.8,136.8,171.8,131.4z M171.5,163.5c0-7.3,6.2-13.5,13.5-13.5c7.3,0,13.5,6.2,13.5,13.5c0,7.3-6.2,13.5-13.5,13.5
		C177.7,177,171.5,170.8,171.5,163.5z"/>
</g>
</svg>
