<?xml version="1.0" encoding="utf-8"?>
<!-- Generator: Adobe Illustrator 21.0.0, SVG Export Plug-In . SVG Version: 6.00 Build 0)  -->
<svg version="1.1" id="Capa_1" xmlns="http://www.w3.org/2000/svg" xmlns:xlink="http://www.w3.org/1999/xlink" x="0px" y="0px"
	 viewBox="0 0 368.5 255.1" style="enable-background:new 0 0 368.5 255.1;" xml:space="preserve">
<style type="text/css">
	.st0{fill:#D0D3D4;}
	.st1{fill:#818888;}
</style>
<path class="st0" d="M343,255.1H25.5c-14,0-25.5-11.5-25.5-25.5V25.5C0,11.5,11.5,0,25.5,0H343c14,0,25.5,11.5,25.5,25.5v204.1
	C368.5,243.6,357,255.1,343,255.1z"/>
<g>
	<g>
		<path class="st1" d="M41.1,102.1c0-12.3,9.1-20.7,20.6-20.7c7.1,0,12,3.4,15.2,7.9l-4.2,2.3c-2.3-3.4-6.4-5.8-11-5.8
			c-8.8,0-15.4,6.7-15.4,16.3c0,9.5,6.7,16.3,15.4,16.3c4.6,0,8.7-2.4,11-5.8l4.3,2.3c-3.4,4.6-8.2,7.9-15.2,7.9
			C50.1,122.8,41.1,114.4,41.1,102.1z"/>
		<path class="st1" d="M106.4,122.1l-10.2-15.9h-8v15.9h-5v-40h16.1c7.3,0,12.5,4.7,12.5,12.1c0,7.2-4.9,11.2-10.4,11.6l10.8,16.3
			H106.4z M106.7,94.1c0-4.5-3.2-7.6-8-7.6H88.2v15.3h10.5C103.5,101.8,106.7,98.6,106.7,94.1z"/>
		<path class="st1" d="M119.7,122.1v-40h26.2v4.4h-21.2v12.9h20.8v4.4h-20.8v13.8h21.2v4.4H119.7z"/>
		<path class="st1" d="M153.9,122.1v-40h13.7c12.4,0,20.5,8.7,20.5,20c0,11.4-8.1,20-20.5,20H153.9z M182.9,102.1
			c0-8.6-5.5-15.6-15.4-15.6h-8.7v31.1h8.7C177.3,117.6,182.9,110.7,182.9,102.1z"/>
		<path class="st1" d="M195.9,122.1v-40h5v40H195.9z"/>
		<path class="st1" d="M220.1,122.1V86.5h-12.7v-4.4h30.4v4.4h-12.7v35.6H220.1z"/>
		<path class="st1" d="M40.3,162.1c0-18.6,14.1-31.1,32.5-31.1c14.5,0,22.3,8.2,26.2,16.1l-13.3,6.3c-2-4.8-7.1-8.7-12.9-8.7
			c-9.8,0-16.8,7.6-16.8,17.4c0,9.8,6.9,17.4,16.8,17.4c5.8,0,10.9-4,12.9-8.7l13.3,6.3c-3.9,7.8-11.7,16.1-26.2,16.1
			C54.4,193.2,40.3,180.5,40.3,162.1z"/>
		<path class="st1" d="M145.9,192.1l-3-8.7h-23.7l-3,8.7H98.6l22.6-60.1h19.5l22.7,60.1H145.9z M131,147.3l-7.7,22.6h15.3L131,147.3
			z"/>
		<path class="st1" d="M201.4,192.1l-10.1-20.2h-7.9v20.2h-15.5V132H198c13.3,0,20.9,8.8,20.9,20c0,10.5-6.4,16-12,18l12.3,22.1
			H201.4z M203.1,151.9c0-4.1-3.4-6.4-7.5-6.4h-12.3v12.9h12.3C199.7,158.4,203.1,156.1,203.1,151.9z"/>
		<path class="st1" d="M227.4,192.1V132h25.2c18.9,0,32.5,11.4,32.5,30c0,18.7-13.6,30.1-32.4,30.1H227.4z M269.3,162
			c0-9.3-5.6-16.5-16.6-16.5h-9.8v33.1h9.7C263.2,178.6,269.3,170.9,269.3,162z"/>
	</g>
	<rect x="40.2" y="202.8" class="st1" width="198.2" height="8.5"/>
</g>
</svg>
