<?xml version="1.0" encoding="utf-8"?>
<!-- Generator: Adobe Illustrator 21.0.0, SVG Export Plug-In . SVG Version: 6.00 Build 0)  -->
<svg version="1.1" id="Capa_1" xmlns="http://www.w3.org/2000/svg" xmlns:xlink="http://www.w3.org/1999/xlink" x="0px" y="0px"
	 viewBox="0 0 368.5 255.1" style="enable-background:new 0 0 368.5 255.1;" xml:space="preserve">
<style type="text/css">
	.st0{fill:#F4F4F5;}
	.st1{fill-rule:evenodd;clip-rule:evenodd;fill:#860A21;}
	.st2{fill-rule:evenodd;clip-rule:evenodd;fill:#FFFFFF;}
</style>
<g>
	<g>
		<defs>
			<rect id="SVGID_1_" x="-854.1" y="-283.6" width="595.3" height="841.9"/>
		</defs>
		<clipPath id="SVGID_2_">
			<use xlink:href="#SVGID_1_"  style="overflow:visible;"/>
		</clipPath>
	</g>
</g>
<path class="st0" d="M343,0H25.5C11.5,0,0,11.5,0,25.5v87.4v35.9v80.8c0,14,11.5,25.5,25.5,25.5H343c14,0,25.5-11.5,25.5-25.5v-72.4
	v-37.5V25.5C368.5,11.5,357,0,343,0z"/>
<g>
	<path class="st1" d="M110.6,56.5c-11.3,0-33.8,0-33.8,0c-15,0.7-27.2,6.7-30.7,19.2c-1.8,6.5-2.9,13.6-4.3,20.3
		C34.4,130.1,28,165.2,21,198.6h263.5c20.4,0,34.4-4.3,38.1-20.5c1.8-7.5,3.4-16,5.1-24.3c6.5-32.2,13.1-64.3,19.8-97.4H110.6
		L110.6,56.5z"/>
	<path class="st2" d="M246.8,141.3c-3.7,3.6-13.9,4.6-12.9-4c0.9-7.1,8.6-8.6,17-7.6C250.3,133.7,249.6,138.6,246.8,141.3
		L246.8,141.3z M235.3,113.6c-0.3,2-0.9,3.7-1.3,5.6c4.2-1.1,17.2-4.3,18.5,1.3c0.4,1.9-0.3,3.8-0.8,5.3
		c-11.8-1.1-21.4,0.8-23.9,9.2c-1.7,5.6,0.2,11.2,3.8,12.7c6.9,3,15.4-0.4,18.3-5.1c-0.3,1.6-0.6,3.3-0.5,5.3h6.1
		c0.1-5.9,0.9-10.6,1.8-15.9c0.8-4.5,2.2-8.9,2-12.9C258.7,110.2,243.7,113.4,235.3,113.6L235.3,113.6z M296.5,144.1
		c-4.8,0.1-7.2-2.9-7.3-7.8c-0.2-8.6,3.6-18.1,11.2-19c3.6-0.4,6.1,0.4,8.8,1.3C306.8,128.4,307.7,143.9,296.5,144.1L296.5,144.1z
		 M312.4,98.7c-0.6,5.3-1.4,10.5-2.5,15.4c-17.4-5.5-28.1,7.3-27.9,23.1c0,3.1,0.6,6.1,2.5,8.3c3.3,3.7,12.7,4.6,17.5,1.5
		c0.9-0.6,1.9-1.7,2.5-2.5c0.5-0.6,1.2-2.1,1.3-1.7c-0.3,1.7-0.6,3.2-0.7,5.1h6.4c1.2-17.8,5.1-33,7.9-49.2H312.4L312.4,98.7z
		 M130.6,141.5c-3.8,4-13.1,4-13.9-2.8c-0.3-2.9,0.8-6,1.3-9.1c0.5-3.1,0.9-6,1.5-8.8c3.7-4.6,14.7-5.1,15.9,2.5
		C136.3,129.9,133.7,138.2,130.6,141.5L130.6,141.5z M136.2,113.6c-6-2.3-13.3,0.4-16.5,3c0,0.1-0.1,0.1-0.2,0.1
		c0.1,0,0.1-0.1,0.2-0.1c0,0,0,0,0,0c0.1-1.1,0.4-1.9,0.5-3h-6.1c-2.5,16.9-5.6,33.4-8.8,49.7h7.1c1-6.3,1.7-13,3.1-19
		c1.6,6.3,12.2,5.1,16.7,2.6C141.5,142,148.6,118.2,136.2,113.6L136.2,113.6z M169.9,125.5h-16.7c0.5-3.8,4-8,9.4-8.3
		C167.7,117,171.4,119.1,169.9,125.5L169.9,125.5z M163.1,112.9c-5.1,0.4-9.5,1.9-12.5,5.1c-3.8,4-6.8,12.8-5.9,20.8
		c1.3,11.4,15.5,11,26.9,8.3c0.2-2,0.7-3.7,1-5.6c-4.7,1.8-12.8,4.2-17.7,1.2c-3.6-2.3-3.7-8.1-2.5-13.2c7.7-0.2,15.6-0.2,23.3,0
		c0.5-3.6,1.9-7.5,0.7-11.1C174.7,113.7,169,112.5,163.1,112.9L163.1,112.9z M100.7,113.6c-0.2,0-0.2,0.3-0.2,0.5
		c-1.6,11.7-3.7,22.8-5.9,33.8h7.1c1.7-11.8,3.7-23.3,6.1-34.3H100.7L100.7,113.6z M286,113.8c-6.3-3.1-11.5,2.1-13.5,5.3
		c0.6-1.6,0.6-3.8,1.2-5.4h-6.3c-1.7,11.8-3.7,23.2-6.1,34.3h7.3c0-4.6,0.9-7.9,1.7-12.4c1.5-9.5,3.7-20,14.9-16.8
		C285.3,117.1,285.5,115.3,286,113.8L286,113.8z M206.2,139.9c-0.7-1.7-0.8-4.5-0.7-6.6c0.4-4.8,2.1-10.6,4.8-13.2
		c3.7-3.6,11-3,16.8-1c0.2-2,0.6-3.7,0.8-5.6c-9.6-1.6-18.6-0.6-23.4,4.5c-4.7,4.9-7.8,16.3-5.6,23.4c2.6,8.4,14,8.8,23.3,5.6
		c0.4-1.7,0.6-3.6,1-5.3C218.1,144.3,208.5,145.7,206.2,139.9L206.2,139.9z M202.2,113.6c-6.3-2.5-11.2,1.8-13.5,5.8
		c0.5-1.8,0.7-3.9,1.2-5.8h-6.3c-1.5,11.9-3.8,23.1-5.9,34.3h7.1c1-6.7,1.4-15.7,3.6-22.1c1.8-5.1,6.4-9.5,13-7.1
		C201.5,116.8,202.1,115.4,202.2,113.6L202.2,113.6z M87.8,99.7c-1,6.6-2.2,13-3.3,19.5c-7.4,0.1-14.9,0.4-22-0.2
		c1.3-6.3,2.3-13,3.6-19.3h-7.9c-2.8,16.1-5.4,32.4-8.6,48.2h8.1c1.3-8.1,2.5-16.3,4.1-23.9c6.9-0.2,15.2-0.5,21.8,0.2
		c-1.4,8-3,15.7-4.3,23.8h8.1c2.6-16.3,5.3-32.5,8.6-48.2H87.8L87.8,99.7z M108,107c1.4-1,3.2-5.4,1.2-7.3c-0.7-0.6-1.8-0.8-3.3-0.5
		c-1.4,0.2-2.2,0.7-2.8,1.5c-0.9,1.2-1.7,4.9-0.3,6.3C104,108.3,107.1,107.6,108,107L108,107z"/>
</g>
</svg>
