<?xml version="1.0" encoding="utf-8"?>
<!-- Generator: Adobe Illustrator 21.0.0, SVG Export Plug-In . SVG Version: 6.00 Build 0)  -->
<svg version="1.1" id="Capa_1" xmlns="http://www.w3.org/2000/svg" xmlns:xlink="http://www.w3.org/1999/xlink" x="0px" y="0px"
	 viewBox="0 0 368.5 255.1" style="enable-background:new 0 0 368.5 255.1;" xml:space="preserve">
<style type="text/css">
	.st0{fill:#E8EAEA;}
	.st1{fill:url(#SVGID_1_);}
	.st2{fill:url(#SVGID_2_);}
	.st3{fill:url(#SVGID_3_);}
	.st4{fill:url(#SVGID_4_);}
	.st5{fill:url(#SVGID_5_);}
</style>
<path class="st0" d="M343,255.1H25.5c-14,0-25.5-11.5-25.5-25.5V25.5C0,11.5,11.5,0,25.5,0H343c14,0,25.5,11.5,25.5,25.5v204.1
	C368.5,243.6,357,255.1,343,255.1z"/>
<g>
	
		<linearGradient id="SVGID_1_" gradientUnits="userSpaceOnUse" x1="-225.485" y1="410.9633" x2="-222.4732" y2="410.9633" gradientTransform="matrix(24.2543 0 0 -15.022 5698.6489 6312.25)">
		<stop  offset="0" style="stop-color:#127147"/>
		<stop  offset="0.2285" style="stop-color:#198048"/>
		<stop  offset="0.7433" style="stop-color:#46A148"/>
		<stop  offset="1" style="stop-color:#5EAE48"/>
	</linearGradient>
	<path class="st1" d="M244.1,146.6h17.1c0.5,0,1.6-0.2,2.1-0.2c3.2-0.7,6-3.6,6-7.6c0-3.9-2.8-6.8-6-7.6c-0.5-0.2-1.5-0.2-2.1-0.2
		h-17.1V146.6z"/>
	
		<linearGradient id="SVGID_2_" gradientUnits="userSpaceOnUse" x1="-232.1713" y1="423.5686" x2="-231.1328" y2="423.5686" gradientTransform="matrix(70.2592 0 0 -170.7188 16541.8438 72438.5938)">
		<stop  offset="0" style="stop-color:#127147"/>
		<stop  offset="0.2285" style="stop-color:#198048"/>
		<stop  offset="0.7433" style="stop-color:#46A148"/>
		<stop  offset="1" style="stop-color:#5EAE48"/>
	</linearGradient>
	<path class="st2" d="M259.3,38.8c-16.3,0-29.6,13.1-29.6,29.6v30.7h41.8c1,0,2.1,0,2.9,0.2c9.4,0.5,16.4,5.4,16.4,13.8
		c0,6.7-4.7,12.4-13.5,13.5v0.3c9.6,0.6,16.9,6,16.9,14.3c0,8.9-8.1,14.8-18.8,14.8h-45.8v60.1h43.4c16.2,0,29.6-13.2,29.6-29.6
		V38.8H259.3L259.3,38.8z"/>
	
		<linearGradient id="SVGID_3_" gradientUnits="userSpaceOnUse" x1="-224.5018" y1="409.7476" x2="-221.2148" y2="409.7476" gradientTransform="matrix(22.22 0 0 -13.7702 5218.0869 5757.3364)">
		<stop  offset="0" style="stop-color:#127147"/>
		<stop  offset="0.2285" style="stop-color:#198048"/>
		<stop  offset="0.7433" style="stop-color:#46A148"/>
		<stop  offset="1" style="stop-color:#5EAE48"/>
	</linearGradient>
	<path class="st3" d="M267.2,115c0-3.9-2.8-6.5-6-7c-0.3,0-1.1-0.2-1.6-0.2h-15.4v14.3h15.4c0.5,0,1.5,0,1.6-0.2
		C264.5,121.5,267.2,118.9,267.2,115L267.2,115z"/>
	
		<linearGradient id="SVGID_4_" gradientUnits="userSpaceOnUse" x1="-232.2578" y1="423.5677" x2="-231.202" y2="423.5677" gradientTransform="matrix(70.2592 0 0 -170.5623 16384.3965 72372.0625)">
		<stop  offset="0" style="stop-color:#292E5C"/>
		<stop  offset="0.4751" style="stop-color:#174E83"/>
		<stop  offset="0.8261" style="stop-color:#29639F"/>
		<stop  offset="1" style="stop-color:#2C6BA6"/>
	</linearGradient>
	<path class="st4" d="M95.8,38.8c-16.3,0-29.6,13.1-29.6,29.6v73c8.3,4.1,16.9,6.7,25.5,6.7c10.3,0,15.8-6.2,15.8-14.6V98.9h25.4
		v34.3c0,13.3-8.3,24.2-36.4,24.2c-17.1,0-30.4-3.7-30.4-3.7V216h43.4c16.3,0,29.6-13.2,29.6-29.6V38.8H95.8L95.8,38.8z"/>
	
		<linearGradient id="SVGID_5_" gradientUnits="userSpaceOnUse" x1="-232.2226" y1="423.5681" x2="-231.1973" y2="423.5681" gradientTransform="matrix(70.2592 0 0 -170.8753 16463.2715 72504.875)">
		<stop  offset="0" style="stop-color:#5B2428"/>
		<stop  offset="0.1735" style="stop-color:#76242E"/>
		<stop  offset="0.5731" style="stop-color:#AB1A37"/>
		<stop  offset="0.8585" style="stop-color:#CC153B"/>
		<stop  offset="1" style="stop-color:#D7153C"/>
	</linearGradient>
	<path class="st5" d="M177.5,38.8c-16.2,0-29.6,13.1-29.6,29.6v38.7c7.5-6.3,20.5-10.4,41.5-9.4c11.2,0.5,23.2,3.6,23.2,3.6v12.5
		c-6-3.1-13.2-5.9-22.4-6.5c-15.9-1.1-25.5,6.6-25.5,20.3c0,13.8,9.6,21.6,25.5,20.3c9.3-0.6,16.4-3.6,22.4-6.5v12.5
		c0,0-11.9,3.1-23.2,3.6c-21,1-34-3.1-41.5-9.4v68.3h43.4c16.3,0,29.6-13.2,29.6-29.6V38.8H177.5L177.5,38.8z"/>
</g>
</svg>
