<?xml version="1.0" encoding="utf-8"?>
<!-- Generator: Adobe Illustrator 21.0.0, SVG Export Plug-In . SVG Version: 6.00 Build 0)  -->
<svg version="1.1" id="Capa_1" xmlns="http://www.w3.org/2000/svg" xmlns:xlink="http://www.w3.org/1999/xlink" x="0px" y="0px"
	 viewBox="0 0 368.5 255.1" style="enable-background:new 0 0 368.5 255.1;" xml:space="preserve">
<style type="text/css">
	.st0{fill:#D0D3D4;}
	.st1{fill:#EE0005;}
	.st2{fill:#F9A000;}
	.st3{fill:#FF6300;}
</style>
<path class="st0" d="M343,255.1H25.5c-14,0-25.5-11.5-25.5-25.5V25.5C0,11.5,11.5,0,25.5,0H343c14,0,25.5,11.5,25.5,25.5v204.1
	C368.5,243.6,357,255.1,343,255.1z"/>
<g>
	<circle class="st1" cx="129.9" cy="127.6" r="87.4"/>
	<circle class="st2" cx="238.5" cy="127.6" r="87.4"/>
	<path class="st3" d="M151.1,127.6c0,27.8,12.9,52.5,33.1,68.5c20.2-16,33.1-40.7,33.1-68.5s-12.9-52.5-33.1-68.5
		C164.1,75.1,151.1,99.9,151.1,127.6z"/>
</g>
</svg>
