<?xml version="1.0" encoding="utf-8"?>
<!-- Generator: Adobe Illustrator 21.0.0, SVG Export Plug-In . SVG Version: 6.00 Build 0)  -->
<svg version="1.1" id="Capa_1" xmlns="http://www.w3.org/2000/svg" xmlns:xlink="http://www.w3.org/1999/xlink" x="0px" y="0px"
	 viewBox="0 0 368.5 255.1" style="enable-background:new 0 0 368.5 255.1;" xml:space="preserve">
<style type="text/css">
	.st0{fill:#293688;}
	.st1{fill:#FFFFFF;}
	.st2{fill:#F7981D;}
</style>
<path class="st0" d="M343,255.1H25.5c-14,0-25.5-11.5-25.5-25.5V25.5C0,11.5,11.5,0,25.5,0H343c14,0,25.5,11.5,25.5,25.5v204.1
	C368.5,243.6,357,255.1,343,255.1z"/>
<g>
	<path class="st1" d="M125,85.4l-23.2,57.9l-2-11.6c-4.3-13.5-17.4-28.1-32.1-35.4l20.5,73.6h24.5l36.8-84.5H125z M158.3,85.4
		L144,169.9h23.2l14.3-84.5H158.3z M306.9,85.4h-17.7c-5.6,0-9.6,1.7-12,7.2l-34.3,77.3h24.5l4.8-12.9h29.3l2.7,12.9H326L306.9,85.4
		z M278.6,140c1.9-4.9,9.2-23.6,9.2-23.6c-0.1,0.2,1.9-4.9,3.1-8.1l1.6,7.3c0,0,4.4,20.2,5.4,24.4H278.6z M226.6,119.5
		c-8.1-3.9-13.1-6.5-13-10.5c0-3.5,4.2-7.3,13.3-7.3c7.6-0.1,13.1,1.5,17.3,3.2l2.1,1l3.4-18.4c-4.6-1.7-11.8-3.5-20.8-3.5
		c-22.9,0-39,11.5-39.2,27.9c-0.1,12.1,11.5,18.9,20.3,23c9,4.1,12,6.8,12,10.5c-0.1,5.7-7.2,8.3-13.9,8.3c-9.3,0-14.2-1.3-21.8-4.4
		l-3-1.3l-3.3,18.9c5.4,2.4,15.4,4.4,25.8,4.5c24.4,0,40.2-11.3,40.3-28.9C246.2,132.9,240,125.6,226.6,119.5z"/>
	<g>
		<path class="st2" d="M42.5,85.4v1.4c29.1,7,49.3,24.7,57.2,45l-8.4-39.2c-1.4-5.3-5.7-7-10.7-7.2L42.5,85.4L42.5,85.4z"/>
	</g>
</g>
</svg>
